<?xml version="1.0" standalone="no"?>
<!DOCTYPE svg PUBLIC "-//W3C//DTD SVG 20010904//EN"
 "http://www.w3.org/TR/2001/REC-SVG-20010904/DTD/svg10.dtd">
<svg version="1.0" xmlns="http://www.w3.org/2000/svg"
 width="270.000000pt" height="230.000000pt" viewBox="0 0 270.000000 230.000000"
 preserveAspectRatio="xMidYMid meet">
<metadata>
Created by potrace 1.15, written by Peter Selinger 2001-2017
</metadata>
<g transform="translate(0.000000,230.000000) scale(0.100000,-0.100000)"
fill="#000000" stroke="none">
<path d="M1315 1878 c-49 -57 -119 -204 -145 -303 -22 -85 -37 -265 -26 -309
l6 -26 204 0 203 0 7 58 c11 109 -21 293 -73 415 -24 55 -100 176 -123 195
-14 11 -21 6 -53 -30z"/>
<path d="M553 1524 c5 -73 33 -178 68 -249 l14 -30 238 -3 c130 -1 237 0 237
4 0 14 -72 103 -119 147 -105 99 -283 191 -393 204 l-51 6 6 -79z"/>
<path d="M2052 1584 c-149 -40 -327 -161 -417 -285 -19 -26 -35 -49 -35 -53 0
-3 106 -6 235 -6 l235 0 20 39 c32 63 70 209 70 267 0 52 -1 54 -27 53 -16 0
-52 -7 -81 -15z"/>
<path d="M690 1180 l-22 -5 22 -28 21 -27 644 0 644 0 21 30 c12 17 20 30 18
30 -43 4 -1333 3 -1348 0z"/>
<path d="M770 1052 c0 -5 10 -18 23 -30 l23 -22 536 0 c526 0 536 0 562 21 14
11 26 25 26 30 0 5 -232 9 -585 9 -322 0 -585 -4 -585 -8z"/>
<path d="M930 920 c61 -47 241 -119 303 -120 4 0 7 32 7 70 l0 70 -167 0 -168
0 25 -20z"/>
<path d="M1272 899 c13 -23 37 -57 54 -77 l30 -36 47 66 c26 36 47 71 47 77 0
7 -33 11 -101 11 l-100 0 23 -41z"/>
<path d="M1465 875 c-4 -36 -5 -69 -1 -72 19 -19 249 67 306 115 l25 21 -162
1 -161 0 -7 -65z"/>
<path d="M1077 713 c-4 -3 -7 -28 -7 -54 0 -48 0 -48 -26 -39 -38 15 -63 12
-108 -10 -119 -58 -114 -217 9 -262 26 -10 52 -15 58 -11 6 3 40 7 76 7 l66 1
3 188 2 187 -33 0 c-19 0 -37 -3 -40 -7z"/>
<path d="M1497 713 c-4 -3 -7 -26 -7 -51 l0 -44 -40 7 c-56 9 -104 -10 -145
-58 -44 -51 -48 -113 -11 -167 24 -36 107 -77 129 -63 6 3 40 7 76 7 l66 1 3
188 2 187 -33 0 c-19 0 -37 -3 -40 -7z"/>
<path d="M620 613 c-102 -53 -106 -192 -8 -254 26 -16 43 -19 83 -14 28 3 69
5 93 5 l43 -1 -3 138 -3 138 -25 -2 c-43 -4 -54 -4 -100 2 -33 4 -54 1 -80
-12z"/>
<path d="M1192 622 c-9 -3 -12 -42 -12 -138 l0 -134 35 0 36 0 -3 137 c-3 129
-4 136 -23 138 -12 1 -26 0 -33 -3z"/>
<path d="M1695 623 c-62 -16 -105 -81 -105 -157 0 -42 5 -51 45 -91 47 -48 61
-51 135 -34 31 7 46 7 48 0 2 -6 17 -11 33 -11 37 0 41 14 37 170 l-3 124 -25
0 c-14 0 -31 -3 -37 -7 -6 -4 -23 -3 -38 3 -27 10 -56 11 -90 3z"/>
<path d="M1973 616 c-38 -17 -55 -47 -51 -88 4 -39 38 -66 98 -76 36 -6 46
-12 48 -30 3 -19 -1 -22 -32 -22 -25 0 -38 6 -46 20 -8 14 -21 20 -45 20 -43
0 -46 -18 -7 -60 68 -76 222 -38 222 54 0 29 -7 40 -36 63 -20 15 -48 38 -63
50 l-26 23 38 -19 c69 -35 96 -13 50 39 -34 38 -98 49 -150 26z"/>
</g>
</svg>
