<?xml version="1.0" standalone="no"?>
<!DOCTYPE svg PUBLIC "-//W3C//DTD SVG 20010904//EN"
 "http://www.w3.org/TR/2001/REC-SVG-20010904/DTD/svg10.dtd">
<svg version="1.0" xmlns="http://www.w3.org/2000/svg"
 width="800.000000pt" height="533.000000pt" viewBox="0 0 800.000000 533.000000"
 preserveAspectRatio="xMidYMid meet">
<metadata>
Created by potrace 1.15, written by Peter Selinger 2001-2017
</metadata>
<g transform="translate(0.000000,533.000000) scale(0.100000,-0.100000)"
fill="#000000" stroke="none">
<path d="M3405 3047 c-115 -30 -209 -107 -261 -212 -27 -55 -29 -69 -29 -170
0 -102 2 -114 29 -168 39 -75 107 -144 182 -182 55 -28 67 -30 169 -30 101 0
115 2 168 28 157 78 249 255 217 420 -34 178 -179 309 -355 321 -42 4 -90 0
-120 -7z m179 -32 c18 -8 39 -22 47 -32 13 -16 12 -17 -3 -5 -11 9 -26 11 -40
6 -13 -4 -25 -6 -27 -5 -2 2 -9 -5 -15 -16 -9 -16 -11 -15 -17 12 -6 29 -7 29
-8 4 -1 -26 -17 -37 -65 -43 -11 -2 -22 -8 -24 -15 -2 -6 -8 -9 -13 -5 -5 3
-19 -2 -31 -10 -32 -23 -45 -20 -17 4 13 10 18 19 12 20 -7 0 -13 -3 -13 -8 0
-4 -14 -13 -30 -20 -17 -8 -27 -18 -24 -24 4 -6 3 -8 -2 -5 -14 8 -27 -2 -62
-55 -31 -45 -32 -49 -32 -155 l1 -108 102 -88 102 -87 87 2 88 3 85 85 c83 83
85 86 85 132 l0 48 -96 0 c-86 0 -95 2 -92 18 3 15 18 17 121 20 l117 3 0 -56
c0 -110 -105 -248 -214 -279 -83 -24 -200 -21 -261 8 -67 31 -137 108 -164
179 -38 102 -26 239 27 301 13 16 14 18 1 8 -9 -6 -19 -9 -22 -5 -7 6 -11 -12
-8 -30 1 -5 -3 -6 -9 -2 -14 8 12 56 57 106 93 103 242 142 357 94z m-74 -327
l0 -158 40 0 c34 0 40 -3 40 -20 0 -19 -5 -21 -57 -18 l-58 3 -3 164 c-2 90
-1 169 1 176 3 6 12 12 21 12 14 0 16 -20 16 -159z"/>
<path d="M4630 2920 c-54 -7 -93 -27 -141 -72 -43 -41 -64 -124 -57 -223 14
-172 185 -259 383 -194 l65 22 0 123 0 124 -100 0 -100 0 0 -45 0 -45 45 0 45
0 0 -50 0 -50 -70 0 c-68 0 -71 1 -105 38 -33 35 -34 40 -35 112 0 41 4 80 8
87 4 7 36 31 71 53 l63 41 54 -28 54 -28 32 33 33 33 -30 25 c-49 39 -131 57
-215 44z"/>
<path d="M4070 2670 l0 -250 175 0 175 0 0 45 0 44 -120 3 -121 3 0 182 c0
100 -3 191 -6 203 -4 17 -13 20 -54 20 l-49 0 0 -250z"/>
</g>
</svg>
