<?xml version="1.0" standalone="no"?>
<!DOCTYPE svg PUBLIC "-//W3C//DTD SVG 20010904//EN"
 "http://www.w3.org/TR/2001/REC-SVG-20010904/DTD/svg10.dtd">
<svg version="1.0" xmlns="http://www.w3.org/2000/svg"
 width="1692.000000pt" height="1080.000000pt" viewBox="0 0 1692.000000 1080.000000"
 preserveAspectRatio="xMidYMid meet">
<metadata>
Created by potrace 1.15, written by Peter Selinger 2001-2017
</metadata>
<g transform="translate(0.000000,1080.000000) scale(0.100000,-0.100000)"
fill="#000000" stroke="none">
<path d="M6240 9814 c-25 -9 -49 -20 -54 -25 -6 -5 -23 -9 -39 -9 -46 0 -206
-58 -300 -108 -397 -214 -737 -617 -1042 -1237 -161 -326 -271 -616 -400
-1055 -336 -1142 -575 -2276 -684 -3240 -30 -264 -39 -396 -61 -855 -10 -231
-36 -783 -56 -1227 -21 -444 -35 -810 -31 -814 4 -4 285 -1 624 7 l618 14 6
540 c3 297 9 614 13 705 4 91 11 273 17 405 46 1125 179 2792 285 3565 86 628
211 1180 367 1620 108 303 253 589 390 770 64 84 197 211 262 250 192 114 423
-25 661 -400 35 -54 163 -306 197 -386 145 -343 261 -722 386 -1264 140 -607
321 -1770 416 -2665 70 -666 90 -1015 90 -1575 0 -477 -7 -611 -41 -814 -10
-62 -11 -91 -4 -96 13 -8 1148 -35 1156 -28 3 3 -1 64 -8 134 -16 167 -16 895
0 1184 51 869 163 1885 326 2950 141 917 311 1632 513 2160 62 161 189 423
249 514 21 32 46 69 55 83 76 114 232 242 320 263 265 64 543 -188 772 -700
241 -539 432 -1382 546 -2416 182 -1641 330 -3697 331 -4591 l0 -213 595 0
595 0 0 28 c0 29 -12 181 -84 1073 -25 305 -50 613 -56 684 -18 231 -90 1116
-100 1240 -10 127 -27 329 -60 740 -26 333 -37 430 -66 620 -140 911 -465
1916 -900 2786 -382 765 -766 1223 -1135 1357 -64 23 -89 26 -184 26 -155 -1
-381 -21 -440 -38 -214 -62 -406 -186 -601 -388 -219 -227 -377 -465 -624
-938 -290 -556 -388 -784 -460 -1070 -42 -164 -74 -264 -138 -423 l-39 -98 -6
108 c-19 390 -233 938 -582 1488 -45 72 -113 180 -150 240 -176 285 -361 529
-543 717 -187 193 -358 315 -529 378 -77 29 -103 33 -208 37 -92 2 -130 0
-165 -13z"/>
</g>
</svg>
